<?xml version="1.0" standalone="no"?>
<!DOCTYPE svg PUBLIC "-//W3C//DTD SVG 20010904//EN"
 "http://www.w3.org/TR/2001/REC-SVG-20010904/DTD/svg10.dtd">
<svg version="1.0" xmlns="http://www.w3.org/2000/svg"
 width="500.000000pt" height="500.000000pt" viewBox="0 0 500.000000 500.000000"
 preserveAspectRatio="xMidYMid meet">

<g transform="translate(0.000000,500.000000) scale(0.100000,-0.100000)"
fill="#000000" stroke="none">
<path d="M2052 3082 c-15 -16 -40 -45 -55 -65 -15 -20 -54 -55 -86 -77 -59
-40 -78 -69 -96 -153 -3 -16 -24 -48 -45 -71 -39 -42 -40 -45 -40 -114 0 -60
-5 -81 -35 -143 -42 -87 -43 -114 -10 -216 18 -58 25 -100 25 -165 l0 -87 55
-52 55 -52 0 -86 c0 -106 11 -125 84 -146 48 -14 54 -19 75 -64 24 -54 48 -74
100 -86 18 -4 51 -23 72 -42 56 -50 73 -43 80 37 7 86 36 167 113 327 95 194
170 298 278 384 66 52 139 77 281 95 267 35 484 132 627 280 63 66 51 62 -35
-11 -161 -136 -356 -219 -583 -248 l-101 -13 -143 85 c-355 213 -402 266 -494
555 -35 112 -59 156 -85 156 -6 0 -23 -13 -37 -28z m66 -4 c5 -7 29 -74 52
-148 23 -74 52 -155 63 -180 31 -65 158 -193 256 -258 104 -67 95 -61 90 -67
-8 -8 -193 79 -286 135 -170 102 -259 188 -329 319 l-28 53 25 22 c14 12 44
48 67 79 42 57 69 70 90 45z m-157 -214 c47 -82 122 -172 182 -217 77 -58 222
-141 365 -209 70 -33 121 -63 114 -65 -16 -6 -189 45 -348 102 -197 72 -232
79 -382 78 -133 -1 -133 -1 -143 24 -16 44 -10 69 35 126 29 37 47 72 51 100
12 70 44 116 82 117 6 0 26 -25 44 -56z m184 -362 c50 -16 135 -46 190 -66 55
-19 153 -49 218 -65 66 -16 121 -31 123 -34 3 -2 -78 -7 -178 -10 -215 -6
-451 -43 -531 -84 -47 -24 -26 -23 73 2 155 39 266 55 425 60 l150 5 -95 -33
c-53 -18 -129 -51 -170 -73 -120 -62 -404 -283 -387 -300 3 -3 56 35 117 85
182 149 295 216 444 267 116 40 131 28 33 -25 -84 -46 -186 -152 -279 -291
-87 -130 -128 -214 -153 -315 -20 -80 -29 -95 -60 -95 -28 0 -49 23 -75 82
-11 26 -28 49 -38 51 -9 3 -30 8 -47 12 -39 9 -65 33 -65 59 0 12 18 43 40 70
45 54 46 75 1 32 l-29 -27 -7 37 c-4 25 -23 56 -55 91 -57 62 -69 102 -49 165
13 39 20 45 87 77 39 19 72 39 72 44 0 12 -36 0 -99 -34 -30 -16 -59 -25 -63
-21 -16 16 -58 147 -58 183 0 45 57 156 91 176 18 10 55 13 154 10 112 -4 142
-9 220 -35z m427 -309 c-17 -21 -45 -51 -62 -68 -48 -44 -124 -165 -184 -290
-69 -143 -94 -213 -109 -305 -14 -86 -28 -94 -64 -41 -28 42 -29 70 -2 157 60
195 262 479 393 555 28 16 53 29 54 29 2 0 -10 -17 -26 -37z"/>
<path d="M2850 2615 l0 -108 65 5 c36 3 72 11 80 18 19 16 19 49 0 70 -12 13
-13 22 -3 48 17 44 -2 60 -80 68 l-62 7 0 -108z m88 44 c-2 -19 -7 -33 -13
-32 -12 3 -19 49 -10 71 10 26 27 -2 23 -39z m8 -73 c8 -34 1 -61 -16 -61 -10
0 -16 13 -18 43 -2 32 0 42 12 42 9 0 18 -11 22 -24z"/>
<path d="M3040 2615 l0 -105 33 0 32 0 -3 48 -2 47 21 -40 c26 -48 35 -55 72
-55 l28 0 -37 70 -38 70 34 35 c31 32 32 35 12 35 -12 0 -22 -6 -22 -12 0 -7
-16 -31 -35 -53 l-36 -40 3 53 3 52 -32 0 -33 0 0 -105z"/>
</g>
</svg>
