<?xml version="1.0" standalone="no"?>
<!DOCTYPE svg PUBLIC "-//W3C//DTD SVG 20010904//EN"
 "http://www.w3.org/TR/2001/REC-SVG-20010904/DTD/svg10.dtd">
<svg version="1.0" xmlns="http://www.w3.org/2000/svg"
 width="500.000000pt" height="500.000000pt" viewBox="0 0 500.000000 500.000000"
 preserveAspectRatio="xMidYMid meet">

<g transform="translate(0.000000,500.000000) scale(0.100000,-0.100000)"
fill="#000000" stroke="none">
<path d="M2062 3095 c-12 -9 -34 -36 -48 -61 -16 -28 -46 -58 -78 -78 -66 -42
-103 -87 -112 -134 -9 -50 -26 -81 -63 -116 -29 -28 -31 -34 -31 -103 0 -63
-5 -83 -32 -136 -39 -75 -41 -132 -10 -231 13 -38 25 -111 29 -167 l6 -98 47
-40 47 -40 6 -97 c6 -111 12 -121 83 -139 44 -11 51 -17 76 -65 31 -60 37 -66
93 -81 22 -6 56 -26 76 -46 55 -53 73 -44 81 42 7 79 39 173 108 322 67 142
128 233 220 325 107 106 162 132 335 154 148 19 266 50 370 98 114 53 267 162
302 216 16 24 16 25 -4 10 -11 -8 -55 -43 -98 -78 -148 -120 -387 -215 -575
-228 l-85 -6 -135 80 c-152 90 -277 176 -333 230 -64 61 -95 123 -152 293 -48
143 -71 189 -95 189 -3 0 -15 -7 -28 -15z m59 -42 c6 -16 26 -76 44 -135 18
-59 44 -131 58 -161 27 -60 140 -186 219 -243 27 -20 47 -39 44 -41 -8 -8
-182 87 -278 151 -48 32 -104 76 -124 98 -43 47 -134 185 -134 203 0 6 10 20
21 31 12 10 39 43 61 72 44 59 73 67 89 25z m-152 -213 c87 -144 198 -234 454
-366 89 -46 152 -84 140 -84 -28 0 -182 48 -322 101 -145 56 -224 70 -366 68
l-120 -1 -3 50 c-3 46 0 53 37 96 29 33 43 61 51 101 12 56 53 119 74 112 6
-2 31 -36 55 -77z m176 -338 c50 -16 135 -46 190 -66 55 -19 153 -49 218 -65
66 -16 121 -31 123 -34 3 -2 -78 -7 -178 -10 -215 -6 -451 -43 -531 -84 -47
-24 -26 -23 73 2 155 39 266 55 425 60 l150 5 -95 -33 c-53 -18 -129 -51 -170
-73 -120 -62 -404 -283 -387 -300 3 -3 56 35 117 85 182 149 295 216 444 267
116 40 131 28 33 -25 -84 -46 -186 -152 -279 -291 -87 -130 -128 -214 -153
-315 -20 -80 -29 -95 -60 -95 -28 0 -49 23 -75 82 -11 26 -28 49 -38 51 -9 3
-30 8 -47 12 -39 9 -65 33 -65 59 0 12 18 43 40 70 45 54 46 75 1 32 l-29 -27
-7 37 c-4 25 -23 56 -55 91 -57 62 -69 102 -49 165 13 39 20 45 87 77 39 19
72 39 72 44 0 12 -36 0 -99 -34 -30 -16 -59 -25 -63 -21 -16 16 -58 147 -58
183 0 45 57 156 91 176 18 10 55 13 154 10 112 -4 142 -9 220 -35z m378 -359
c-109 -124 -172 -233 -259 -445 -32 -79 -47 -130 -51 -179 -4 -45 -10 -69 -18
-69 -18 0 -65 65 -65 90 0 127 157 416 313 578 44 45 127 105 135 97 3 -2 -22
-35 -55 -72z"/>
</g>
</svg>
